<svg width="150" height="130" viewBox="0 0 150 130" fill="none" xmlns="http://www.w3.org/2000/svg">
<ellipse cx="74.7178" cy="71.9447" rx="66.5" ry="34.5" transform="rotate(-23.2451 74.7178 71.9447)" fill="#EBE8DE"/>
<path d="M44.128 99.656C41.248 99.656 38.432 99.432 35.68 98.984C32.928 98.536 30.464 97.992 28.288 97.352C26.176 96.712 24.48 96.04 23.2 95.336C21.92 94.632 21.28 93.992 21.28 93.416C21.28 91.816 21.472 89.576 21.856 86.696C22.304 83.816 22.528 79.848 22.528 74.792V64.136C22.528 59.912 22.688 56.488 23.008 53.864C23.392 51.176 23.776 49.096 24.16 47.624H20.896L16.096 41.192L16.864 39.656H24.544C27.552 39.656 29.952 39.592 31.744 39.464C33.6 39.336 35.456 39.272 37.312 39.272C38.976 39.272 40.8 39.784 42.784 40.808C44.768 41.832 46.656 43.144 48.448 44.744C50.304 46.344 51.808 48.008 52.96 49.736C54.176 51.4 54.784 52.872 54.784 54.152V58.472C54.784 61.416 54.304 64.04 53.344 66.344C52.448 68.648 51.104 70.44 49.312 71.72C51.808 73.576 53.632 75.528 54.784 77.576C56 79.56 56.608 81.8 56.608 84.296V86.216C56.608 90.696 55.488 94.056 53.248 96.296C51.072 98.536 48.032 99.656 44.128 99.656ZM41.344 47.624C40.192 47.624 38.976 47.688 37.696 47.816C36.48 47.88 35.232 48.008 33.952 48.2C33.504 49.928 33.088 52.072 32.704 54.632C32.384 57.128 32.224 60.072 32.224 63.464V65.288H38.08C39.488 65.288 40.736 65.096 41.824 64.712C42.912 64.264 43.744 63.4 44.32 62.12C44.96 60.84 45.28 58.92 45.28 56.36V52.52C45.28 50.6 44.992 49.32 44.416 48.68C43.84 47.976 42.816 47.624 41.344 47.624ZM32.224 79.112C32.224 81.736 32.16 84.04 32.032 86.024C31.904 87.944 31.744 89.704 31.552 91.304C33.152 91.688 34.72 91.88 36.256 91.88C40.16 91.88 42.848 91.016 44.32 89.288C45.856 87.56 46.624 85.288 46.624 82.472V80.936C46.624 77.48 45.92 75.304 44.512 74.408C43.104 73.448 41.216 72.968 38.848 72.968H32.224V79.112ZM66.7938 99.176L61.0338 91.208C62.3138 88.52 63.9138 85.256 65.8338 81.416C67.8178 77.512 70.6338 72.424 74.2818 66.152C76.6498 62.056 78.5058 58.856 79.8498 56.552C81.2578 54.248 82.3458 52.456 83.1138 51.176C83.8818 49.832 84.5538 48.648 85.1298 47.624H80.6178C78.4418 47.624 76.4898 47.816 74.7618 48.2C73.0338 48.52 71.2418 49.192 69.3858 50.216H67.5618L61.6098 41.288L62.2818 39.656H90.0258L95.4978 47.624C94.3458 49.8 93.3218 51.752 92.4258 53.48C91.5298 55.144 90.6018 56.84 89.6418 58.568C88.7458 60.296 87.7218 62.184 86.5698 64.232C85.4818 66.28 84.1698 68.712 82.6338 71.528C79.6898 76.904 77.4498 81.064 75.9138 84.008C74.3778 86.888 73.1938 89.256 72.3618 91.112H79.5618C80.8418 91.112 82.5698 91.016 84.7458 90.824C86.9858 90.632 89.3538 90.344 91.8498 89.96L96.9378 97.448L96.3618 99.176H66.7938ZM103.45 99.176L97.69 91.208C98.97 88.52 100.57 85.256 102.49 81.416C104.474 77.512 107.29 72.424 110.938 66.152C113.306 62.056 115.162 58.856 116.506 56.552C117.914 54.248 119.002 52.456 119.77 51.176C120.538 49.832 121.21 48.648 121.786 47.624H117.274C115.098 47.624 113.146 47.816 111.418 48.2C109.69 48.52 107.898 49.192 106.042 50.216H104.218L98.266 41.288L98.938 39.656H126.682L132.154 47.624C131.002 49.8 129.978 51.752 129.082 53.48C128.186 55.144 127.258 56.84 126.298 58.568C125.402 60.296 124.378 62.184 123.226 64.232C122.138 66.28 120.826 68.712 119.29 71.528C116.346 76.904 114.106 81.064 112.57 84.008C111.034 86.888 109.85 89.256 109.018 91.112H116.218C117.498 91.112 119.226 91.016 121.402 90.824C123.642 90.632 126.01 90.344 128.506 89.96L133.594 97.448L133.018 99.176H103.45Z" fill="#E85A51"/>
</svg>