<svg width="109" height="42" viewBox="0 0 109 42" fill="none" xmlns="http://www.w3.org/2000/svg">
<path d="M0.264 42V0.783997H22.024C26.1627 0.783997 29.2773 1.76533 31.368 3.728C33.5013 5.69066 34.568 8.464 34.568 12.048C34.568 14.224 34.1413 16.0587 33.288 17.552C32.4773 19.0027 31.3893 20.1333 30.024 20.944C31.9013 21.6267 33.3733 22.6293 34.44 23.952C35.5067 25.2747 36.04 27.2587 36.04 29.904C36.04 33.8293 34.888 36.8373 32.584 38.928C30.28 40.976 26.9733 42 22.664 42H0.264ZM10.568 17.552H18.952C20.744 17.552 22.0453 17.1467 22.856 16.336C23.6667 15.5253 24.072 14.3947 24.072 12.944C24.072 11.3653 23.6667 10.192 22.856 9.424C22.0453 8.61333 20.5733 8.208 18.44 8.208H10.568V17.552ZM10.568 34.64H19.976C21.8533 34.64 23.24 34.256 24.136 33.488C25.0747 32.72 25.544 31.3547 25.544 29.392C25.544 27.8133 25.096 26.64 24.2 25.872C23.304 25.0613 21.768 24.656 19.592 24.656H10.568V34.64ZM38.734 42V36.752L58.062 8.976H39.694V0.783997H71.566V6.544L52.43 34.064H71.95V42H38.734ZM74.7965 42V36.752L94.1245 8.976H75.7565V0.783997H107.629V6.544L88.4925 34.064H108.013V42H74.7965Z" fill="#303C6C"/>
</svg>
